STARTFONT 2.3
FONT -FontForge-Permanent Marker-Book-R-Normal--11-110-72-72-P-63-ISO10646-1
SIZE 11 72 72  4
FONTBOUNDINGBOX 18 17 -4 -4
COMMENT "Generated by fontforge, http://fontforge.sourceforge.net"
COMMENT "Copyright (c) 2010 by Font Diner, Inc. All rights reserved."
STARTPROPERTIES 40
FOUNDRY "FontForge"
FAMILY_NAME "Permanent Marker"
WEIGHT_NAME "Book"
SLANT "R"
SETWIDTH_NAME "Normal"
ADD_STYLE_NAME ""
PIXEL_SIZE 11
POINT_SIZE 110
RESOLUTION_X 72
RESOLUTION_Y 72
SPACING "P"
AVERAGE_WIDTH 63
CHARSET_REGISTRY "ISO10646"
CHARSET_ENCODING "1"
FONTNAME_REGISTRY ""
CHARSET_COLLECTIONS "ISO10646-1"
BITS_PER_PIXEL 4
FONT_NAME "PermanentMarker-Regular"
FACE_NAME "Permanent Marker Regular"
COPYRIGHT "Copyright (c) 2010 by Font Diner, Inc. All rights reserved."
FONT_VERSION "1.001"
FONT_ASCENT 9
FONT_DESCENT 2
UNDERLINE_POSITION -1
UNDERLINE_THICKNESS 1
X_HEIGHT 6
CAP_HEIGHT 7
RAW_ASCENT 799
RAW_DESCENT 200
NORM_SPACE 4
RELATIVE_WEIGHT 40
RELATIVE_SETWIDTH 50
SUPERSCRIPT_X 0
SUPERSCRIPT_Y 5
SUPERSCRIPT_SIZE 6
SUBSCRIPT_X 0
SUBSCRIPT_Y 1
SUBSCRIPT_SIZE 6
AVG_LOWERCASE_WIDTH 61
AVG_UPPERCASE_WIDTH 75
ENDPROPERTIES
CHARS 230
STARTCHAR space
ENCODING 32
SWIDTH 370 0
DWIDTH 4 0
BBX 1 1 0 0
BITMAP
00
ENDCHAR
STARTCHAR exclam
ENCODING 33
SWIDTH 260 0
DWIDTH 3 0
BBX 3 10 0 -1
BITMAP
0010
05C0
0AE0
0CB0
1F80
3F50
1600
6700
DC00
2100
ENDCHAR
STARTCHAR quotedbl
ENCODING 34
SWIDTH 492 0
DWIDTH 5 0
BBX 6 6 0 3
BITMAP
001010
05E3D9
0BF4F8
0EC7F3
1F8AE0
0D39A0
ENDCHAR
STARTCHAR numbersign
ENCODING 35
SWIDTH 703 0
DWIDTH 8 0
BBX 8 8 0 0
BITMAP
000A1470
004F4AD0
1ADFDFE8
1BFCAF84
26FABF50
AFFDFEA0
2EA6F400
2E47D000
ENDCHAR
STARTCHAR dollar
ENCODING 36
SWIDTH 493 0
DWIDTH 5 0
BBX 6 9 0 -1
BITMAP
000940
003EC5
4CFDCC
9FE700
035C40
026E50
4FF700
0AD000
011000
ENDCHAR
STARTCHAR percent
ENCODING 37
SWIDTH 643 0
DWIDTH 7 0
BBX 8 8 0 0
BITMAP
01A10072
1DE608E1
6EDA8E40
2979E300
008E5700
09E5EE10
5F3ADE60
7B06C910
ENDCHAR
STARTCHAR ampersand
ENCODING 38
SWIDTH 599 0
DWIDTH 7 0
BBX 7 6 0 0
BITMAP
000B6000
3D9F9000
DEFFEC20
5BEF9610
00BE0000
00550000
ENDCHAR
STARTCHAR quotesingle
ENCODING 39
SWIDTH 265 0
DWIDTH 3 0
BBX 4 6 0 3
BITMAP
0010
05E3
0BF2
0EC0
1F80
0D30
ENDCHAR
STARTCHAR parenleft
ENCODING 40
SWIDTH 361 0
DWIDTH 4 0
BBX 6 12 0 -2
BITMAP
000020
0006F2
007FD0
04FC10
0CF200
2F9000
5F4000
9F1000
AF1000
8F3000
4F6000
086000
ENDCHAR
STARTCHAR parenright
ENCODING 41
SWIDTH 361 0
DWIDTH 4 0
BBX 6 12 -2 -2
BITMAP
000200
0008A0
0008F4
0005F7
0003F7
0004F6
0008F2
000DE0
007F80
06FD10
3FD200
4C1000
ENDCHAR
STARTCHAR asterisk
ENCODING 42
SWIDTH 673 0
DWIDTH 7 0
BBX 8 6 0 2
BITMAP
007C2B40
007FFD10
1CEFFFF7
07BFFC20
00DD6F00
00520400
ENDCHAR
STARTCHAR plus
ENCODING 43
SWIDTH 579 0
DWIDTH 6 0
BBX 6 6 0 0
BITMAP
003A00
009F10
69EFA4
AEFEB7
04F700
03B200
ENDCHAR
STARTCHAR comma
ENCODING 44
SWIDTH 204 0
DWIDTH 2 0
BBX 4 4 -2 -2
BITMAP
0261
07F5
0CE1
1B60
ENDCHAR
STARTCHAR hyphen
ENCODING 45
SWIDTH 609 0
DWIDTH 7 0
BBX 6 2 0 2
BITMAP
59ABA5
8ECBB7
ENDCHAR
STARTCHAR period
ENCODING 46
SWIDTH 228 0
DWIDTH 3 0
BBX 3 3 -1 -1
BITMAP
1940
3F70
0300
ENDCHAR
STARTCHAR slash
ENCODING 47
SWIDTH 401 0
DWIDTH 4 0
BBX 7 9 -1 -1
BITMAP
00000820
00007F30
0003F800
002EA000
01CD1000
0BE20000
4F400000
5F100000
01000000
ENDCHAR
STARTCHAR zero
ENCODING 48
SWIDTH 686 0
DWIDTH 8 0
BBX 8 10 0 -1
BITMAP
00003100
0006FA00
006FFD00
05FEDF20
2EF42F90
8F700BE0
BF104EF1
BFCDFFB0
4EFFE800
01320000
ENDCHAR
STARTCHAR one
ENCODING 49
SWIDTH 322 0
DWIDTH 4 0
BBX 3 8 0 0
BITMAP
0D30
0FC0
0CE0
0CE0
1FC0
6F80
AF30
9D00
ENDCHAR
STARTCHAR two
ENCODING 50
SWIDTH 650 0
DWIDTH 7 0
BBX 8 8 0 0
BITMAP
1CEEC500
3FFFFF40
0323EF70
004EFB00
05FF7000
2EF63584
5FFFFFFA
1DFDB850
ENDCHAR
STARTCHAR three
ENCODING 51
SWIDTH 561 0
DWIDTH 6 0
BBX 7 8 -1 0
BITMAP
048BCD70
1FFFFFE0
0ACFFE60
00BFF600
005DFF40
00009FA0
08EFFF60
09EDA300
ENDCHAR
STARTCHAR four
ENCODING 52
SWIDTH 582 0
DWIDTH 6 0
BBX 7 10 0 -1
BITMAP
00001000
0101E100
6B03F400
5F25F600
3FEEFF40
0BFFD600
003F5000
005F2000
003F7000
00041000
ENDCHAR
STARTCHAR five
ENCODING 53
SWIDTH 580 0
DWIDTH 6 0
BBX 8 8 0 0
BITMAP
01892330
1CFFFFF2
6FFFCA81
5FFA1000
06CFB000
0008F400
5FFFF500
0ADC7000
ENDCHAR
STARTCHAR six
ENCODING 54
SWIDTH 500 0
DWIDTH 6 0
BBX 7 9 -1 -1
BITMAP
0009D100
006FF300
00ED2000
05F61000
0BE9FB00
1FBFFF20
1FEFFC00
0CFD9100
00200000
ENDCHAR
STARTCHAR seven
ENCODING 55
SWIDTH 576 0
DWIDTH 6 0
BBX 7 8 0 0
BITMAP
8DDB5000
CFFFF400
1115F700
0027FA40
2EFFFFB0
2BEF8300
00EB0000
01E40000
ENDCHAR
STARTCHAR eight
ENCODING 56
SWIDTH 537 0
DWIDTH 6 0
BBX 7 9 0 -1
BITMAP
06EE4B10
2FEFAF50
4F67EF40
1EFFF600
0CFF3000
1F8F5000
1FCF8000
08FE3000
00100000
ENDCHAR
STARTCHAR nine
ENCODING 57
SWIDTH 529 0
DWIDTH 6 0
BBX 6 9 0 -1
BITMAP
019EA0
1DFDF5
7FDAFA
7FFFF9
1558F1
0009C0
000C90
000D50
000200
ENDCHAR
STARTCHAR colon
ENCODING 58
SWIDTH 241 0
DWIDTH 3 0
BBX 4 6 -1 -1
BITMAP
0691
08F2
0120
1940
3F70
0300
ENDCHAR
STARTCHAR semicolon
ENCODING 59
SWIDTH 245 0
DWIDTH 3 0
BBX 4 7 -1 -2
BITMAP
05A1
08F2
0120
0620
2FA0
7F50
8A00
ENDCHAR
STARTCHAR less
ENCODING 60
SWIDTH 625 0
DWIDTH 7 0
BBX 7 6 0 0
BITMAP
00000210
0004BFA0
58EFD710
DFF80000
17DFD300
00038700
ENDCHAR
STARTCHAR equal
ENCODING 61
SWIDTH 586 0
DWIDTH 6 0
BBX 6 4 0 1
BITMAP
4BDDDA
4A8875
68ABB3
BCA982
ENDCHAR
STARTCHAR greater
ENCODING 62
SWIDTH 634 0
DWIDTH 7 0
BBX 8 6 -1 0
BITMAP
01200000
03FC8200
003AFFA1
004AEFE3
3DFD8200
3A500000
ENDCHAR
STARTCHAR question
ENCODING 63
SWIDTH 556 0
DWIDTH 6 0
BBX 7 10 0 -1
BITMAP
00100000
09FFEA40
0EDEFFB0
0102CF90
006EFA10
05FC4000
04700000
39200000
5F500000
03000000
ENDCHAR
STARTCHAR at
ENCODING 64
SWIDTH 732 0
DWIDTH 8 0
BBX 8 10 0 -1
BITMAP
00001000
0002FD30
002CDBC0
05EB36D7
5FA8FC7C
EC9DAA7B
F4AFEED3
CA355410
1AFFFF80
00133310
ENDCHAR
STARTCHAR A
ENCODING 65
SWIDTH 702 0
DWIDTH 8 0
BBX 9 9 -1 -1
BITMAP
00002C6000
0007EFC000
003FFFE000
00AF9AF300
02FF7BFF70
09FDFFFE20
1FD255FD00
1E8005F600
0000001000
ENDCHAR
STARTCHAR B
ENCODING 66
SWIDTH 686 0
DWIDTH 8 0
BBX 9 9 -1 -1
BITMAP
049CEFC200
2FFFABFC00
08AD7EF800
007FFFC000
00BFCAD700
01FD02CF20
06FCBFFD10
04FFFC7100
0022200000
ENDCHAR
STARTCHAR C
ENCODING 67
SWIDTH 611 0
DWIDTH 7 0
BBX 7 8 0 0
BITMAP
0002AB10
018FFF60
1CFFB600
BFD50000
FD100000
DB200000
7FFEDB10
06BEFC10
ENDCHAR
STARTCHAR D
ENCODING 68
SWIDTH 588 0
DWIDTH 6 0
BBX 7 8 0 0
BITMAP
3C510000
4FFE5000
4F49F600
3F305F10
4F308F40
9F7EFB00
CFFF8000
9E710000
ENDCHAR
STARTCHAR E
ENCODING 69
SWIDTH 626 0
DWIDTH 7 0
BBX 8 9 0 -1
BITMAP
0148ADB1
2EFFFFA0
1FF74000
0DFEE700
5FFFE600
CF300200
CFCDFF50
6FFFD910
00100000
ENDCHAR
STARTCHAR F
ENCODING 70
SWIDTH 575 0
DWIDTH 6 0
BBX 9 8 -1 0
BITMAP
00049CFF60
04EFFEB960
02EF800000
019F332000
2FFFFFD000
0CFC973000
0AE1000000
08B0000000
ENDCHAR
STARTCHAR G
ENCODING 71
SWIDTH 789 0
DWIDTH 9 0
BBX 10 8 0 0
BITMAP
00006D5000
002BFFB000
02EFE60000
2EFB159200
AFB008FF60
ED1149FFF1
BFEFFFFD40
3DFDB72000
ENDCHAR
STARTCHAR H
ENCODING 72
SWIDTH 695 0
DWIDTH 8 0
BBX 8 9 0 -1
BITMAP
061004A0
0DA007F3
0FD009F6
3FB00BF5
6FDAEFF2
AFFFEFC0
EFB27F80
CE103D40
11000000
ENDCHAR
STARTCHAR I
ENCODING 73
SWIDTH 515 0
DWIDTH 6 0
BBX 8 9 -1 -1
BITMAP
008CEFEA
009EFEA8
0001F900
0005F500
000BF100
002FA000
39CFE800
3FECA700
01000000
ENDCHAR
STARTCHAR J
ENCODING 74
SWIDTH 668 0
DWIDTH 7 0
BBX 10 8 -1 0
BITMAP
0069ABCCB3
04FFFFFEEA
006419F300
00000DE000
00002FA000
01008F6000
2FDCFE1000
0ACEC30000
ENDCHAR
STARTCHAR K
ENCODING 75
SWIDTH 776 0
DWIDTH 9 0
BBX 9 9 0 -1
BITMAP
00B9003400
05FE08FF20
0AF9CFF800
1FFFFD3000
6FFFE10000
AFFDFC7720
CFB07FFFA0
8D10016710
0100000000
ENDCHAR
STARTCHAR L
ENCODING 76
SWIDTH 632 0
DWIDTH 7 0
BBX 7 9 0 -1
BITMAP
02D60000
07F90000
0CF40000
3FD00000
8F800000
CF323100
DFEFFF60
6FFBAA60
01000000
ENDCHAR
STARTCHAR M
ENCODING 77
SWIDTH 973 0
DWIDTH 11 0
BBX 11 9 0 -1
BITMAP
004E50005900
01DFE004EF70
07FFF16FFF60
0EFFFFFFFF40
6FDCFFE6CF20
CF717610FF00
EE100001FB00
A9000000A300
100000000000
ENDCHAR
STARTCHAR N
ENCODING 78
SWIDTH 684 0
DWIDTH 8 0
BBX 9 8 -1 0
BITMAP
0008700C30
001EF45FB0
008FF28F60
01EFE0BF20
07FFE3FF00
1EFDFEFC00
0FF2CFF400
08A01A6000
ENDCHAR
STARTCHAR O
ENCODING 79
SWIDTH 744 0
DWIDTH 8 0
BBX 8 10 0 -1
BITMAP
00000100
0001BE20
003DFF60
03EFEEA0
1EF808F3
8F8001F9
DE0028FB
CFDDFFF5
3DFFD930
00110000
ENDCHAR
STARTCHAR P
ENCODING 80
SWIDTH 639 0
DWIDTH 7 0
BBX 8 9 0 -1
BITMAP
005DFE60
02FFFFF1
09F63BF5
5FFCFFF3
8FFFFC40
5FC52000
6F700000
6F400000
01000000
ENDCHAR
STARTCHAR Q
ENCODING 81
SWIDTH 744 0
DWIDTH 8 0
BBX 8 9 0 -1
BITMAP
0001EC20
0009FFC0
01BFD9F6
2DFB10CD
BFA4E7DD
FD01DFF9
EDCFFFE1
6EFE99F3
01100191
ENDCHAR
STARTCHAR R
ENCODING 82
SWIDTH 646 0
DWIDTH 7 0
BBX 8 9 0 -1
BITMAP
001BD200
00AFFD00
0DF9BF50
3FE7CF60
7FFFF910
AFFC1000
CFDFD950
9A19EFF1
00000450
ENDCHAR
STARTCHAR S
ENCODING 83
SWIDTH 576 0
DWIDTH 6 0
BBX 8 9 0 -1
BITMAP
0059DFD1
5DFFEFF6
DFFA0000
7EFFB000
0015E500
0018F600
3AEFC000
5FE81000
02000000
ENDCHAR
STARTCHAR T
ENCODING 84
SWIDTH 607 0
DWIDTH 7 0
BBX 9 9 0 -1
BITMAP
678BCDFE30
DFFFFECB40
367FB00000
009F500000
00EE000000
04F7000000
06F2000000
02E7000000
0011000000
ENDCHAR
STARTCHAR U
ENCODING 85
SWIDTH 695 0
DWIDTH 8 0
BBX 8 8 0 0
BITMAP
00000075
1D2000CB
4F9001FD
6F8007FA
7F705FF3
6FCBFF60
1FFFF700
07DB4000
ENDCHAR
STARTCHAR V
ENCODING 86
SWIDTH 583 0
DWIDTH 6 0
BBX 8 9 0 -1
BITMAP
2B0005E1
4F603FF2
3FA1DF70
3FB9FA00
1FEFD100
0EFF5000
0AFB0000
04F40000
00100000
ENDCHAR
STARTCHAR W
ENCODING 87
SWIDTH 994 0
DWIDTH 11 0
BBX 12 8 0 0
BITMAP
0290001002C1
0AF505E208F6
1FF11EF50EF3
4FB09FF25FB0
8F64FFE1DF50
BF8EFEFCFD00
8FFFA2FFF400
1BC6007F6000
ENDCHAR
STARTCHAR X
ENCODING 88
SWIDTH 623 0
DWIDTH 7 0
BBX 9 9 -1 -1
BITMAP
01B3002910
01FF35EF60
009FEFF810
001EFE4000
00AFFD0000
09FDBF8000
1FE21EF100
1E5007D000
0200000000
ENDCHAR
STARTCHAR Y
ENCODING 89
SWIDTH 493 0
DWIDTH 5 0
BBX 7 9 0 -1
BITMAP
5C206E50
4F74FF50
2FCDF600
0DFF9000
06FE1000
0BF60000
4FD00000
6F500000
04000000
ENDCHAR
STARTCHAR Z
ENCODING 90
SWIDTH 664 0
DWIDTH 7 0
BBX 9 9 -1 -1
BITMAP
004CDCCC30
003FFEFF80
00012DFB10
0006EFA000
01AFF70000
0DFD315200
1FFABFFB00
0CFFEC7100
0155100000
ENDCHAR
STARTCHAR bracketleft
ENCODING 91
SWIDTH 387 0
DWIDTH 4 0
BBX 9 12 -1 -2
BITMAP
0008CDED50
000CEBBA50
001F900000
004F500000
008F100000
00CD000000
01F9000000
05F6000000
0AF1000000
0EB1200000
4FFFF80000
1B97620000
ENDCHAR
STARTCHAR backslash
ENCODING 92
SWIDTH 352 0
DWIDTH 4 0
BBX 4 9 0 -1
BITMAP
5B10
3F30
1F50
0C70
0AA0
07D0
06F0
04F2
0030
ENDCHAR
STARTCHAR bracketright
ENCODING 93
SWIDTH 403 0
DWIDTH 4 0
BBX 8 12 -3 -2
BITMAP
005CEED4
004EBBF7
000006F3
00000AF0
00000EB0
00002F70
00007F30
0000BE00
0001FA00
0016F600
CEFFF100
AA764000
ENDCHAR
STARTCHAR asciicircum
ENCODING 94
SWIDTH 518 0
DWIDTH 6 0
BBX 5 7 0 2
BITMAP
000100
001E60
008FA0
03FFD0
1CD8E0
AF36F0
D601C0
ENDCHAR
STARTCHAR underscore
ENCODING 95
SWIDTH 708 0
DWIDTH 8 0
BBX 9 3 -1 -1
BITMAP
2344554200
EFFFFFFF70
2532222100
ENDCHAR
STARTCHAR grave
ENCODING 96
SWIDTH 754 0
DWIDTH 8 0
BBX 4 4 3 5
BITMAP
0100
9C10
6FD1
04E5
ENDCHAR
STARTCHAR a
ENCODING 97
SWIDTH 581 0
DWIDTH 6 0
BBX 8 8 -1 -1
BITMAP
00005300
0019FC00
009FFE00
01EC6F50
08FDDFE3
1EA98EA0
1E403F60
01000100
ENDCHAR
STARTCHAR b
ENCODING 98
SWIDTH 573 0
DWIDTH 6 0
BBX 7 8 -1 -1
BITMAP
01589700
2FFECF80
09C9CF60
00CFFC00
01FA4A90
07F6AFD0
08FFE920
00230000
ENDCHAR
STARTCHAR c
ENCODING 99
SWIDTH 513 0
DWIDTH 6 0
BBX 6 8 0 -1
BITMAP
000360
02AFF5
3EFC60
CF6000
E70000
BD9860
1AEFE1
000100
ENDCHAR
STARTCHAR d
ENCODING 100
SWIDTH 497 0
DWIDTH 5 0
BBX 6 8 0 -1
BITMAP
350000
5FE600
6C6D80
4D01E2
7C2AF2
BFFE50
AD7100
100000
ENDCHAR
STARTCHAR e
ENCODING 101
SWIDTH 521 0
DWIDTH 6 0
BBX 6 8 0 -1
BITMAP
002575
3DFFFB
2FC620
2FFFB0
9F8830
DD78B2
9FFFC2
021000
ENDCHAR
STARTCHAR f
ENCODING 102
SWIDTH 455 0
DWIDTH 5 0
BBX 8 7 -1 0
BITMAP
00026991
04CFFCB4
04ED1000
05EB6500
2FFFEA00
0BC20000
0B700000
ENDCHAR
STARTCHAR g
ENCODING 103
SWIDTH 652 0
DWIDTH 7 0
BBX 8 7 0 0
BITMAP
00017200
004DFA00
06FE7100
5FD25B30
DD105FF5
DC9CEFE4
5FFDA510
ENDCHAR
STARTCHAR h
ENCODING 104
SWIDTH 582 0
DWIDTH 6 0
BBX 7 8 0 -1
BITMAP
02002500
1E305D10
3F608F20
5F42BF10
9FEFFD00
EFB7F700
EB01E400
10000000
ENDCHAR
STARTCHAR i
ENCODING 105
SWIDTH 320 0
DWIDTH 4 0
BBX 3 8 0 -1
BITMAP
0240
0AB0
0DC0
2F80
4F50
5F30
1F30
0100
ENDCHAR
STARTCHAR j
ENCODING 106
SWIDTH 534 0
DWIDTH 6 0
BBX 9 7 -1 0
BITMAP
0035677500
06FFFFFF30
01626F2000
00009D0000
0000E90000
1A7AF40000
1CEF800000
ENDCHAR
STARTCHAR k
ENCODING 107
SWIDTH 645 0
DWIDTH 7 0
BBX 8 8 0 -1
BITMAP
01710100
08F55EB0
0DE9FE50
4FFFB100
9FFF6000
CF98FFE2
9C003880
10000000
ENDCHAR
STARTCHAR l
ENCODING 108
SWIDTH 533 0
DWIDTH 6 0
BBX 6 8 0 -1
BITMAP
046000
0AF100
1EB000
6F5000
AE0000
DE9CA3
9FECC6
020000
ENDCHAR
STARTCHAR m
ENCODING 109
SWIDTH 814 0
DWIDTH 9 0
BBX 9 8 0 -1
BITMAP
0064000510
03FF205FA0
0BFF58FFA0
3FFFFFDF90
9F6DE84F60
ED00006F30
C600003B00
1000000000
ENDCHAR
STARTCHAR n
ENCODING 110
SWIDTH 564 0
DWIDTH 6 0
BBX 8 7 -1 0
BITMAP
00060060
005F74F6
00CF67F2
04FF4BE0
0CFF9FB0
1FD9FF60
0B71A800
ENDCHAR
STARTCHAR o
ENCODING 111
SWIDTH 628 0
DWIDTH 7 0
BBX 7 8 0 -1
BITMAP
00039100
006FF600
07FEE900
4FA15F20
BD101F60
DC79EF50
6FFFB500
01200000
ENDCHAR
STARTCHAR p
ENCODING 112
SWIDTH 524 0
DWIDTH 6 0
BBX 7 8 0 -1
BITMAP
00598200
05FFFC00
1CB4CF10
8FEFFC00
9FEA6100
8F100000
9D000000
11000000
ENDCHAR
STARTCHAR q
ENCODING 113
SWIDTH 625 0
DWIDTH 7 0
BBX 7 8 0 -1
BITMAP
00067000
002EF900
05EE9F30
5FC51C80
ED1BCF80
F98DFD10
9FFCBE00
02101800
ENDCHAR
STARTCHAR r
ENCODING 114
SWIDTH 541 0
DWIDTH 6 0
BBX 6 8 0 -1
BITMAP
002810
01DFC0
2ED8F4
6FBDF4
9FFB40
CFF941
B87EFE
100044
ENDCHAR
STARTCHAR s
ENCODING 115
SWIDTH 463 0
DWIDTH 5 0
BBX 7 8 0 -1
BITMAP
00269600
4CFFFF30
DFE40000
5BDE2000
000B8000
26CF4000
6FD50000
12000000
ENDCHAR
STARTCHAR t
ENCODING 116
SWIDTH 479 0
DWIDTH 5 0
BBX 8 8 0 -1
BITMAP
23478970
EFFFFDC1
45CE1000
01F80000
07F20000
0AB00000
07C00000
00200000
ENDCHAR
STARTCHAR u
ENCODING 117
SWIDTH 584 0
DWIDTH 6 0
BBX 7 7 0 0
BITMAP
00000410
19000B70
4F400E90
6F306F60
7F37FC00
4FFFD100
0BFA2000
ENDCHAR
STARTCHAR v
ENCODING 118
SWIDTH 485 0
DWIDTH 5 0
BBX 7 8 0 -1
BITMAP
14001800
4E10CF10
3F58F800
3F9FA000
1FFE1000
0DF60000
08D00000
00100000
ENDCHAR
STARTCHAR w
ENCODING 119
SWIDTH 825 0
DWIDTH 9 0
BBX 10 8 0 -1
BITMAP
0220000051
0BC02B11E8
2F90CF26F6
6F46FE0CE0
9F3EFD7F70
AFEF8FFE10
3DC409E400
0000001000
ENDCHAR
STARTCHAR x
ENCODING 120
SWIDTH 506 0
DWIDTH 6 0
BBX 8 8 -1 -1
BITMAP
01400040
04F82BF2
01CFEE70
007FE300
04FFF400
0ED2DE00
2F305E00
03000100
ENDCHAR
STARTCHAR y
ENCODING 121
SWIDTH 400 0
DWIDTH 4 0
BBX 6 8 0 -1
BITMAP
350082
5F2AF6
3FBF90
0DFC00
0AF300
2F9000
7F2000
130000
ENDCHAR
STARTCHAR z
ENCODING 122
SWIDTH 547 0
DWIDTH 6 0
BBX 8 8 -1 -1
BITMAP
00477760
008FFFF4
0002AF90
003DF800
07FE4000
1FE69D70
0DFFEA20
01640000
ENDCHAR
STARTCHAR braceleft
ENCODING 123
SWIDTH 448 0
DWIDTH 5 0
BBX 9 12 0 -2
BITMAP
0008CDED50
000CEBBA50
000F900000
004F500000
27EF200000
BFC2000000
4EF6000000
06F5000000
0AF1000000
0EB1200000
4FFFF80000
1B97620000
ENDCHAR
STARTCHAR bar
ENCODING 124
SWIDTH 332 0
DWIDTH 4 0
BBX 4 9 0 -1
BITMAP
0085
00E8
03F3
08D0
0D80
4F30
AD00
E700
1000
ENDCHAR
STARTCHAR braceright
ENCODING 125
SWIDTH 481 0
DWIDTH 5 0
BBX 9 12 -4 -2
BITMAP
0006CEED20
0006DBCF50
0000007F20
000000BD00
000001FB00
000002DF90
000002AFF0
00000DF820
00002F9000
00017F4000
2CEFFE0000
0B97630000
ENDCHAR
STARTCHAR asciitilde
ENCODING 126
SWIDTH 581 0
DWIDTH 6 0
BBX 6 3 0 2
BITMAP
045114
7FFDCB
843A91
ENDCHAR
STARTCHAR uni00A0
ENCODING 160
SWIDTH 370 0
DWIDTH 4 0
BBX 1 1 0 0
BITMAP
00
ENDCHAR
STARTCHAR exclamdown
ENCODING 161
SWIDTH 260 0
DWIDTH 3 0
BBX 4 10 -1 -1
BITMAP
0011
00DA
00A7
0040
06F1
0AE0
0CB0
1F80
1E40
0200
ENDCHAR
STARTCHAR cent
ENCODING 162
SWIDTH 488 0
DWIDTH 5 0
BBX 6 9 0 -1
BITMAP
000C00
005F90
08EFC1
8FA200
D80000
9D9750
1CEC90
0E8000
020000
ENDCHAR
STARTCHAR sterling
ENCODING 163
SWIDTH 586 0
DWIDTH 6 0
BBX 8 8 -1 0
BITMAP
00000100
0006EFE3
001EB582
06BFD910
08FEA810
03DB5830
1EFFFF70
01332000
ENDCHAR
STARTCHAR currency
ENCODING 164
SWIDTH 509 0
DWIDTH 6 0
BBX 6 6 0 0
BITMAP
2B8AA3
1FFFD3
5F8E80
9FCF90
CDBE60
710520
ENDCHAR
STARTCHAR yen
ENCODING 165
SWIDTH 563 0
DWIDTH 6 0
BBX 7 7 0 0
BITMAP
08605C20
09D3FD10
07FDE200
7BFFD500
9EFD9600
09F30000
0A900000
ENDCHAR
STARTCHAR brokenbar
ENCODING 166
SWIDTH 301 0
DWIDTH 3 0
BBX 5 9 -1 -1
BITMAP
000A30
001F60
007F10
006800
002000
06F000
0DB000
1F5000
010000
ENDCHAR
STARTCHAR section
ENCODING 167
SWIDTH 630 0
DWIDTH 7 0
BBX 7 11 0 -2
BITMAP
00269A30
0CFFFFA0
0FF91110
0AFFD400
4FFCDF30
7F96BF60
0BFFFA00
004CFD00
7BBDFE00
8FFC8300
01000000
ENDCHAR
STARTCHAR dieresis
ENCODING 168
SWIDTH 754 0
DWIDTH 8 0
BBX 6 2 2 6
BITMAP
6E28D1
5A1480
ENDCHAR
STARTCHAR copyright
ENCODING 169
SWIDTH 614 0
DWIDTH 7 0
BBX 7 7 0 1
BITMAP
008CB400
0AB36C30
5D6EA690
A7C205A0
B6C93A70
5B26AB00
04BC7000
ENDCHAR
STARTCHAR ordfeminine
ENCODING 170
SWIDTH 454 0
DWIDTH 5 0
BBX 5 5 0 2
BITMAP
02CB00
0DFE00
6FDFB0
DDDF80
842A20
ENDCHAR
STARTCHAR guillemotleft
ENCODING 171
SWIDTH 566 0
DWIDTH 6 0
BBX 7 6 -1 -1
BITMAP
00081180
01AE4DA0
1EC7F910
0CC4E900
01A93D40
00010010
ENDCHAR
STARTCHAR logicalnot
ENCODING 172
SWIDTH 698 0
DWIDTH 8 0
BBX 7 4 0 0
BITMAP
79AAB930
BECBBEC0
00002F70
00004E20
ENDCHAR
STARTCHAR sfthyphen
ENCODING 173
SWIDTH 608 0
DWIDTH 7 0
BBX 6 2 0 2
BITMAP
59ABA5
8ECBB7
ENDCHAR
STARTCHAR registered
ENCODING 174
SWIDTH 624 0
DWIDTH 7 0
BBX 7 7 0 1
BITMAP
007CC500
09C67A50
3E5CD7B0
88AEC4C0
97DD7990
3C43DC10
03BC8100
ENDCHAR
STARTCHAR macron
ENCODING 175
SWIDTH 754 0
DWIDTH 8 0
BBX 5 3 2 6
BITMAP
001100
1FFF90
075520
ENDCHAR
STARTCHAR degree
ENCODING 176
SWIDTH 284 0
DWIDTH 3 0
BBX 4 4 1 5
BITMAP
0970
9DD0
FDF1
5720
ENDCHAR
STARTCHAR plusminus
ENCODING 177
SWIDTH 559 0
DWIDTH 6 0
BBX 8 9 -1 -1
BITMAP
00007100
0003F500
025AFA30
06FFFEC1
003ED000
000E8000
15788500
3FFFED30
02100000
ENDCHAR
STARTCHAR twosuperior
ENCODING 178
SWIDTH 386 0
DWIDTH 4 0
BBX 5 5 0 3
BITMAP
1BC800
19FF10
1CF930
2FFE80
011000
ENDCHAR
STARTCHAR threesuperior
ENCODING 179
SWIDTH 366 0
DWIDTH 4 0
BBX 5 5 0 3
BITMAP
1ACB10
2DFD10
03DF20
09FE20
012000
ENDCHAR
STARTCHAR acute
ENCODING 180
SWIDTH 754 0
DWIDTH 8 0
BBX 4 4 3 5
BITMAP
0010
05E4
5FD2
BB10
ENDCHAR
STARTCHAR mu
ENCODING 181
SWIDTH 569 0
DWIDTH 6 0
BBX 8 8 -1 -2
BITMAP
00200090
02E103F1
05F209E0
09F06F80
0BFEFA00
0FEE8100
1F300000
01000000
ENDCHAR
STARTCHAR paragraph
ENCODING 182
SWIDTH 729 0
DWIDTH 8 0
BBX 9 10 0 -1
BITMAP
0000003200
016BDFFF60
2DFFFCEC30
5FB5F6F700
1DDBF6F400
02AFFFF300
000ECED400
001F6E9000
004F3CD000
0002012000
ENDCHAR
STARTCHAR periodcentered
ENCODING 183
SWIDTH 226 0
DWIDTH 3 0
BBX 3 2 0 3
BITMAP
5D20
5B20
ENDCHAR
STARTCHAR cedilla
ENCODING 184
SWIDTH 754 0
DWIDTH 8 0
BBX 4 5 3 -4
BITMAP
0720
5F50
18E6
BCF7
3530
ENDCHAR
STARTCHAR onesuperior
ENCODING 185
SWIDTH 206 0
DWIDTH 2 0
BBX 3 5 0 3
BITMAP
0B20
0D70
1F50
4F10
0200
ENDCHAR
STARTCHAR ordmasculine
ENCODING 186
SWIDTH 445 0
DWIDTH 5 0
BBX 5 6 0 2
BITMAP
000100
02CD00
2DFF30
AE5EA0
DFEFA0
4CB710
ENDCHAR
STARTCHAR guillemotright
ENCODING 187
SWIDTH 595 0
DWIDTH 7 0
BBX 7 6 -1 -1
BITMAP
07308100
06F59E30
00AF1CC0
08F8BE60
3E36C200
01011000
ENDCHAR
STARTCHAR onequarter
ENCODING 188
SWIDTH 705 0
DWIDTH 8 0
BBX 8 9 0 -1
BITMAP
0B102D00
0F50CE00
2F48F300
5E5F5120
04EAA6B0
2EB2FDF3
8E108F70
9C002F30
01000200
ENDCHAR
STARTCHAR onehalf
ENCODING 189
SWIDTH 750 0
DWIDTH 8 0
BBX 8 9 0 -1
BITMAP
0B102D00
0F50CE00
2F48F300
5E5F5000
04E8DE90
2EB07EE1
8E10CF94
9C00EEC5
01000000
ENDCHAR
STARTCHAR threequarters
ENCODING 190
SWIDTH 818 0
DWIDTH 9 0
BBX 9 9 0 -1
BITMAP
1CED103A00
1CFC13EB00
08FC2EB100
2ED9DA0300
002DBB3F00
02DA0FDF50
0BC007F710
0E6003F200
0100002000
ENDCHAR
STARTCHAR questiondown
ENCODING 191
SWIDTH 556 0
DWIDTH 6 0
BBX 7 9 -1 -1
BITMAP
00002D50
00002D60
00003200
0007F800
04DFB100
5FE60000
9FEA9B10
6EFFFD10
00255100
ENDCHAR
STARTCHAR Agrave
ENCODING 192
SWIDTH 702 0
DWIDTH 8 0
BBX 9 13 -1 -1
BITMAP
0000010000
00009C1000
00006FD100
000004E500
00002C6000
0007EFC000
003FFFE000
00AF9AF300
02FF7BFF70
09FDFFFE20
1FD255FD00
1E8005F600
0000001000
ENDCHAR
STARTCHAR Aacute
ENCODING 193
SWIDTH 702 0
DWIDTH 8 0
BBX 9 14 -1 -1
BITMAP
0000001000
000004E500
00003ED300
00009C2000
0000000000
00002C6000
0007EFC000
003FFFE000
00AF9AF300
02FF7BFF70
09FDFFFE20
1FD255FD00
1E8005F600
0000001000
ENDCHAR
STARTCHAR Acircumflex
ENCODING 194
SWIDTH 702 0
DWIDTH 8 0
BBX 9 13 -1 -1
BITMAP
0000063000
00009FE500
0005E49E00
0000200300
00002C6000
0007EFC000
003FFFE000
00AF9AF300
02FF7BFF70
09FDFFFE20
1FD255FD00
1E8005F600
0000001000
ENDCHAR
STARTCHAR Atilde
ENCODING 195
SWIDTH 702 0
DWIDTH 8 0
BBX 9 12 -1 -1
BITMAP
0000031020
0000BFEBD0
0003B4CC30
00002C6000
0007EFC000
003FFFE000
00AF9AF300
02FF7BFF70
09FDFFFE20
1FD255FD00
1E8005F600
0000001000
ENDCHAR
STARTCHAR Adieresis
ENCODING 196
SWIDTH 702 0
DWIDTH 8 0
BBX 9 11 -1 -1
BITMAP
0004E36E20
0003A23910
00002C6000
0007EFC000
003FFFE000
00AF9AF300
02FF7BFF70
09FDFFFE20
1FD255FD00
1E8005F600
0000001000
ENDCHAR
STARTCHAR Aring
ENCODING 197
SWIDTH 702 0
DWIDTH 8 0
BBX 9 12 -1 -1
BITMAP
0000007100
00000BF500
00005ECA00
00005FD300
0007EFC000
003FFFE000
00AF9AF300
02FF7BFF70
09FDFFFE20
1FD255FD00
1E8005F600
0000001000
ENDCHAR
STARTCHAR AE
ENCODING 198
SWIDTH 1153 0
DWIDTH 13 0
BBX 14 9 -1 -1
BITMAP
000009A0158BD9
0005CFF6FFFFE8
002EFFF5FE7300
00AF9AF5FFEE50
04FE7CFFFFFD40
0DFEFFFFE10120
7F7349FFECDFE2
8D100DCAFFED80
00000100110000
ENDCHAR
STARTCHAR Ccedilla
ENCODING 199
SWIDTH 611 0
DWIDTH 7 0
BBX 7 12 0 -4
BITMAP
0002AB10
018FFF60
1CFFB600
BFD50000
FD100000
DB200000
7FFEDB10
06FFFC10
06F30000
03AE4000
19AF7000
05640000
ENDCHAR
STARTCHAR Egrave
ENCODING 200
SWIDTH 626 0
DWIDTH 7 0
BBX 8 14 0 -1
BITMAP
00010000
002E6000
002CF600
0001AC00
00000000
0148ADB1
2EFFFFA0
1FF74000
0DFEE700
5FFFE600
CF300200
CFCDFF50
6FFFD910
00100000
ENDCHAR
STARTCHAR Eacute
ENCODING 201
SWIDTH 626 0
DWIDTH 7 0
BBX 8 14 0 -1
BITMAP
00000100
00005E40
0005FD20
000BB100
00000000
0148ADB1
2EFFFFA0
1FF74000
0DFEE700
5FFFE600
CF300200
CFCDFF50
6FFFD910
00100000
ENDCHAR
STARTCHAR Ecircumflex
ENCODING 202
SWIDTH 626 0
DWIDTH 7 0
BBX 8 13 0 -1
BITMAP
00017100
002DFC20
00AC2D90
00210110
0148ADB1
2EFFFFA0
1FF74000
0DFEE700
5FFFE600
CF300200
CFCDFF50
6FFFD910
00100000
ENDCHAR
STARTCHAR Edieresis
ENCODING 203
SWIDTH 626 0
DWIDTH 7 0
BBX 8 11 0 -1
BITMAP
008C1BC0
00780670
0148ADB1
2EFFFFA0
1FF74000
0DFEE700
5FFFE600
CF300200
CFCDFF50
6FFFD910
00100000
ENDCHAR
STARTCHAR Igrave
ENCODING 204
SWIDTH 515 0
DWIDTH 6 0
BBX 8 14 -1 -1
BITMAP
00001000
0007D200
0005EE20
00003D70
00000000
008CEFEA
009EFEA8
0001F900
0005F500
000BF100
002FA000
39CFE800
3FECA700
01000000
ENDCHAR
STARTCHAR Iacute
ENCODING 205
SWIDTH 515 0
DWIDTH 6 0
BBX 8 14 -1 -1
BITMAP
00000001
000001AC
00000BF8
00003E60
00000000
008CEFEA
009EFEA8
0001F900
0005F500
000BF100
002FA000
39CFE800
3FECA700
01000000
ENDCHAR
STARTCHAR Icircumflex
ENCODING 206
SWIDTH 515 0
DWIDTH 6 0
BBX 8 13 -1 -1
BITMAP
00001620
0001CFD3
0008D2BB
00012012
008CEFEA
009EFEA8
0001F900
0005F500
000BF100
002FA000
39CFE800
3FECA700
01000000
ENDCHAR
STARTCHAR Idieresis
ENCODING 207
SWIDTH 515 0
DWIDTH 6 0
BBX 9 12 -1 -1
BITMAP
0006E28D10
0005A14800
0000000000
008CEFEA00
009EFEA800
0001F90000
0005F50000
000BF10000
002FA00000
39CFE80000
3FECA70000
0100000000
ENDCHAR
STARTCHAR Eth
ENCODING 208
SWIDTH 656 0
DWIDTH 7 0
BBX 8 8 -1 0
BITMAP
007A4000
008FFC20
008C5BE3
1BEFB09C
1EEF82BF
01CD8FF7
01FFFE50
00DC6000
ENDCHAR
STARTCHAR Ntilde
ENCODING 209
SWIDTH 684 0
DWIDTH 8 0
BBX 10 12 -1 0
BITMAP
0000022020
00007FFAF2
0000B5AC50
0000000000
0008700C30
001EF45FB0
008FF28F60
01EFE0BF20
07FFE3FF00
1EFDFEFC00
0FF2CFF400
08A01A6000
ENDCHAR
STARTCHAR Ograve
ENCODING 210
SWIDTH 744 0
DWIDTH 8 0
BBX 8 13 0 -1
BITMAP
00001000
0000BB10
00008FB0
000006E3
0001BE30
003DFF60
03EFEEA0
1EF808F3
8F8001F9
DE0028FB
CFDDFFF5
3DFFD930
00110000
ENDCHAR
STARTCHAR Oacute
ENCODING 211
SWIDTH 744 0
DWIDTH 8 0
BBX 8 14 0 -1
BITMAP
00000100
00004E50
0003ED30
0009C200
00000100
0001BE20
003DFF60
03EFEEA0
1EF808F3
8F8001F9
DE0028FB
CFDDFFF5
3DFFD930
00110000
ENDCHAR
STARTCHAR Ocircumflex
ENCODING 212
SWIDTH 744 0
DWIDTH 8 0
BBX 8 13 0 -1
BITMAP
00002600
0003EFB1
000CB3E8
00021121
0001BE20
003DFF60
03EFEEA0
1EF808F3
8F8001F9
DE0028FB
CFDDFFF5
3DFFD930
00110000
ENDCHAR
STARTCHAR Otilde
ENCODING 213
SWIDTH 744 0
DWIDTH 8 0
BBX 9 13 0 -1
BITMAP
0000220200
0007FFAF20
000B5AC500
0000010000
0001BE2000
003DFF6000
03EFEEA000
1EF808F300
8F8001F900
DE0028FB00
CFDDFFF500
3DFFD93000
0011000000
ENDCHAR
STARTCHAR Odieresis
ENCODING 214
SWIDTH 744 0
DWIDTH 8 0
BBX 8 11 0 -1
BITMAP
000C90E8
000A6194
0001BE20
003DFF60
03EFEEA0
1EF808F3
8F8001F9
DE0028FB
CFDDFFF5
3DFFD930
00110000
ENDCHAR
STARTCHAR multiply
ENCODING 215
SWIDTH 490 0
DWIDTH 5 0
BBX 6 6 0 0
BITMAP
270071
3FACE3
09FC20
3EF900
DB4F40
B10930
ENDCHAR
STARTCHAR Oslash
ENCODING 216
SWIDTH 744 0
DWIDTH 8 0
BBX 8 11 0 -2
BITMAP
00000100
0001BE8A
003DFFFA
03EFFFE2
1EF8CFF3
8F89F7F9
DE8FB8FB
CFFFFFF5
3FFFD930
0EC10000
03300000
ENDCHAR
STARTCHAR Ugrave
ENCODING 217
SWIDTH 695 0
DWIDTH 8 0
BBX 8 12 0 0
BITMAP
00010000
009C2000
006FD100
0004D500
00000075
1D2000CB
4F9001FD
6F8007FA
7F705FF3
6FCBFF60
1FFFF700
07DB4000
ENDCHAR
STARTCHAR Uacute
ENCODING 218
SWIDTH 695 0
DWIDTH 8 0
BBX 8 12 0 0
BITMAP
00000010
00001AC0
0000BF80
0003E600
00000075
1D2000CB
4F9001FD
6F8007FA
7F705FF3
6FCBFF60
1FFFF700
07DB4000
ENDCHAR
STARTCHAR Ucircumflex
ENCODING 219
SWIDTH 695 0
DWIDTH 8 0
BBX 8 12 0 0
BITMAP
00016200
001CFD30
008D2BB0
00120120
00000075
1D2000CB
4F9001FD
6F8007FA
7F705FF3
6FCBFF60
1FFFF700
07DB4000
ENDCHAR
STARTCHAR Udieresis
ENCODING 220
SWIDTH 695 0
DWIDTH 8 0
BBX 8 10 0 0
BITMAP
007D19D0
00691580
00000075
1D2000CB
4F9001FD
6F8007FA
7F705FF3
6FCBFF60
1FFFF700
07DB4000
ENDCHAR
STARTCHAR Yacute
ENCODING 221
SWIDTH 493 0
DWIDTH 5 0
BBX 7 14 0 -1
BITMAP
00000100
00006E20
0006FC20
000CA100
00000000
5C206E50
4F74FF50
2FCDF600
0DFF9000
06FE1000
0BF60000
4FD00000
6F500000
04000000
ENDCHAR
STARTCHAR Thorn
ENCODING 222
SWIDTH 680 0
DWIDTH 7 0
BBX 8 9 0 -1
BITMAP
06800000
0DE86400
2FFFFFD2
5FA12EF7
9F86DFE3
AFFFE920
9FB50000
4F300000
01000000
ENDCHAR
STARTCHAR germandbls
ENCODING 223
SWIDTH 931 0
DWIDTH 10 0
BBX 12 8 0 -1
BITMAP
002696026970
4CFFFFCFFFF5
DFE40BFE6000
5BDE24ACF300
000B80009A00
26CF415BF600
6FD504FE6000
120000200000
ENDCHAR
STARTCHAR agrave
ENCODING 224
SWIDTH 581 0
DWIDTH 6 0
BBX 8 12 -1 -1
BITMAP
00001000
0006E300
0003EE30
00002C90
00005300
0019FC00
009FFE00
01EC6F50
08FDDFE3
1EA98EA0
1E403F60
01000100
ENDCHAR
STARTCHAR aacute
ENCODING 225
SWIDTH 581 0
DWIDTH 6 0
BBX 8 12 -1 -1
BITMAP
00000100
00003D70
0002EE40
0007D200
00006300
0019FC00
009FFE00
01EC6F50
08FDDFE3
1EA98EA0
1E403F60
01000100
ENDCHAR
STARTCHAR acircumflex
ENCODING 226
SWIDTH 581 0
DWIDTH 6 0
BBX 8 11 -1 -1
BITMAP
00005400
0008FF60
003F57F1
00035330
0019FC00
009FFE00
01EC6F50
08FDDFE3
1EA98EA0
1E403F60
01000100
ENDCHAR
STARTCHAR atilde
ENCODING 227
SWIDTH 581 0
DWIDTH 6 0
BBX 8 11 -1 -1
BITMAP
00003102
000CFDBB
003B4CC2
00005300
0019FC00
009FFE00
01EC6F50
08FDDFE3
1EA98EA0
1E403F60
01000100
ENDCHAR
STARTCHAR adieresis
ENCODING 228
SWIDTH 581 0
DWIDTH 6 0
BBX 8 10 -1 -1
BITMAP
000D81F7
000A5193
00005300
0019FC00
009FFE00
01EC6F50
08FDDFE3
1EA98EA0
1E403F60
01000100
ENDCHAR
STARTCHAR aring
ENCODING 229
SWIDTH 581 0
DWIDTH 6 0
BBX 8 10 -1 -1
BITMAP
00002D40
0001ECA0
0004FEB0
0018FC00
009FFE00
01EC6F50
08FDDFE3
1EA98EA0
1E403F60
01000100
ENDCHAR
STARTCHAR ae
ENCODING 230
SWIDTH 948 0
DWIDTH 10 0
BBX 12 8 -1 -1
BITMAP
000045003573
0007EE6EFFF7
008FEF7F9500
02FB8F9FFF60
0BFDEFFD8710
5F7AAFFA79A0
9B00BDDFFEA0
000010021000
ENDCHAR
STARTCHAR ccedilla
ENCODING 231
SWIDTH 513 0
DWIDTH 6 0
BBX 6 11 0 -4
BITMAP
000360
02AFF5
3EFC60
CF6000
E70000
BD9860
1AFFE1
07D200
039D10
1CED10
012000
ENDCHAR
STARTCHAR egrave
ENCODING 232
SWIDTH 521 0
DWIDTH 6 0
BBX 6 12 0 -1
BITMAP
001000
07D300
04EE20
002D70
002575
3DFFFB
2FC620
2FFFB0
9F8830
DD78B2
9FFFC2
021000
ENDCHAR
STARTCHAR eacute
ENCODING 233
SWIDTH 521 0
DWIDTH 6 0
BBX 6 12 0 -1
BITMAP
000010
0004E5
003EE3
009C20
002575
3DFFFB
2FC620
2FFFB0
9F8830
DD78B2
9FFFC2
021000
ENDCHAR
STARTCHAR ecircumflex
ENCODING 234
SWIDTH 521 0
DWIDTH 6 0
BBX 7 11 0 -1
BITMAP
00045000
006FF800
02F76F30
00457800
3DFFFB00
2FC62000
2FFFB000
9F883000
DD78B200
9FFFC200
02100000
ENDCHAR
STARTCHAR edieresis
ENCODING 235
SWIDTH 521 0
DWIDTH 6 0
BBX 7 10 0 -1
BITMAP
00D81F70
00A51930
00257500
3DFFFB00
2FC62000
2FFFB000
9F883000
DD78B200
9FFFC200
02100000
ENDCHAR
STARTCHAR igrave
ENCODING 236
SWIDTH 320 0
DWIDTH 4 0
BBX 5 12 0 -1
BITMAP
010000
0D9000
0AF900
007F10
024000
0AB000
0DC000
2F8000
4F5000
5F3000
1F3000
010000
ENDCHAR
STARTCHAR iacute
ENCODING 237
SWIDTH 320 0
DWIDTH 4 0
BBX 6 12 0 -1
BITMAP
000010
0002C9
001DF6
005D40
024000
0AB000
0DC000
2F8000
4F5000
5F3000
1F3000
010000
ENDCHAR
STARTCHAR icircumflex
ENCODING 238
SWIDTH 320 0
DWIDTH 4 0
BBX 5 11 0 -1
BITMAP
006200
1AFE40
6E3AD0
044020
0AB000
0DC000
2F8000
4F5000
5F3000
1F3000
010000
ENDCHAR
STARTCHAR idieresis
ENCODING 239
SWIDTH 320 0
DWIDTH 4 0
BBX 6 10 0 -1
BITMAP
7D19D1
591580
024000
0AB000
0DC000
2F8000
4F5000
5F3000
1F3000
010000
ENDCHAR
STARTCHAR eth
ENCODING 240
SWIDTH 541 0
DWIDTH 6 0
BBX 7 8 -1 -1
BITMAP
00720000
00EFB200
00E79E20
3EFF28A0
19F76E90
04FFFA10
04FA4000
00100000
ENDCHAR
STARTCHAR ntilde
ENCODING 241
SWIDTH 564 0
DWIDTH 6 0
BBX 9 10 -1 0
BITMAP
0000130110
0002EFBD80
000796DA10
0006006000
005F74F600
00CF67F200
04FF4BE000
0CFF9FB000
1FD9FF6000
0B71A80000
ENDCHAR
STARTCHAR ograve
ENCODING 242
SWIDTH 628 0
DWIDTH 7 0
BBX 7 12 0 -1
BITMAP
00010000
001E9000
000AF900
00007F00
00039100
006FF600
07FEE900
4FA15F20
BD101F60
DC79EF50
6FFFB500
01200000
ENDCHAR
STARTCHAR oacute
ENCODING 243
SWIDTH 628 0
DWIDTH 7 0
BBX 7 12 0 -1
BITMAP
00000100
0001BA00
001CF700
004E5000
00049100
006FF600
07FEE900
4FA15F20
BD101F60
DC79EF50
6FFFB500
01200000
ENDCHAR
STARTCHAR ocircumflex
ENCODING 244
SWIDTH 628 0
DWIDTH 7 0
BBX 7 12 0 -1
BITMAP
00016200
001CFD30
008D2BB0
00120120
00039100
006FF600
07FEE900
4FA15F20
BD101F60
DC79EF50
6FFFB500
01200000
ENDCHAR
STARTCHAR otilde
ENCODING 245
SWIDTH 628 0
DWIDTH 7 0
BBX 8 11 0 -1
BITMAP
00013011
002EFBD8
00796DA1
00039100
006FF600
07FEE900
4FA15F20
BD101F60
DC79EF50
6FFFB500
01200000
ENDCHAR
STARTCHAR odieresis
ENCODING 246
SWIDTH 628 0
DWIDTH 7 0
BBX 8 10 0 -1
BITMAP
006E28D1
005A1480
00039100
006FF600
07FEE900
4FA15F20
BD101F60
DC79EF50
6FFFB500
01200000
ENDCHAR
STARTCHAR divide
ENCODING 247
SWIDTH 559 0
DWIDTH 6 0
BBX 6 8 0 -1
BITMAP
001400
008F20
004700
9CDEC5
9B9873
03B300
05F200
001000
ENDCHAR
STARTCHAR oslash
ENCODING 248
SWIDTH 632 0
DWIDTH 7 0
BBX 7 9 0 -2
BITMAP
0003A440
006FFF70
07FEFE10
4FBAEF20
BD7F5E70
DDFEEF60
6FFFC600
1F710000
03000000
ENDCHAR
STARTCHAR ugrave
ENCODING 249
SWIDTH 584 0
DWIDTH 6 0
BBX 7 11 0 0
BITMAP
00100000
00CA0000
009FA000
0006E200
00000410
19000B70
4F400E90
6F306F60
7F37FC00
4FFFD100
0BFA2000
ENDCHAR
STARTCHAR uacute
ENCODING 250
SWIDTH 584 0
DWIDTH 6 0
BBX 7 11 0 0
BITMAP
00000100
00006E20
0006FC20
000CA100
00000410
19000B70
4F400E90
6F306F60
7F37FC00
4FFFD100
0BFA2000
ENDCHAR
STARTCHAR ucircumflex
ENCODING 251
SWIDTH 584 0
DWIDTH 6 0
BBX 7 11 0 0
BITMAP
00036000
005FF900
00E94F50
00300200
00000410
19000B70
4F400E90
6F306F60
7F37FC00
4FFFD100
0BFA2000
ENDCHAR
STARTCHAR udieresis
ENCODING 252
SWIDTH 584 0
DWIDTH 6 0
BBX 7 9 0 0
BITMAP
00D81F70
00A51930
00000410
19000B70
4F400E90
6F306F60
7F37FC00
4FFFD100
0BFA2000
ENDCHAR
STARTCHAR yacute
ENCODING 253
SWIDTH 400 0
DWIDTH 4 0
BBX 6 13 0 -1
BITMAP
000001
0000AC
000BF8
002E60
000000
350082
5F2AF6
3FBF90
0DFC00
0AF300
2F9000
7F2000
130000
ENDCHAR
STARTCHAR thorn
ENCODING 254
SWIDTH 579 0
DWIDTH 6 0
BBX 7 7 0 0
BITMAP
07200000
1FB75100
3FDCEE20
7F32CF50
AFBFE700
AFB61000
6D000000
ENDCHAR
STARTCHAR ydieresis
ENCODING 255
SWIDTH 400 0
DWIDTH 4 0
BBX 7 11 0 -1
BITMAP
06E28D10
04A14900
00000000
35008200
5F2AF600
3FBF9000
0DFC0000
0AF30000
2F900000
7F200000
13000000
ENDCHAR
STARTCHAR dotlessi
ENCODING 305
SWIDTH 320 0
DWIDTH 4 0
BBX 3 8 0 -1
BITMAP
0240
0AB0
0DC0
2F80
4F50
5F30
1F30
0100
ENDCHAR
STARTCHAR Lslash
ENCODING 321
SWIDTH 632 0
DWIDTH 7 0
BBX 8 9 -1 -1
BITMAP
002D6000
007F9000
00CF8100
4AFFE400
DFF80000
1DF32310
0DFEFFF6
06FFBAA6
00100000
ENDCHAR
STARTCHAR lslash
ENCODING 322
SWIDTH 533 0
DWIDTH 6 0
BBX 7 8 -1 -1
BITMAP
00460000
00AF1000
01ED3000
6CFE8000
CEE10000
0DE9CA30
09FECC60
00200000
ENDCHAR
STARTCHAR OE
ENCODING 338
SWIDTH 1212 0
DWIDTH 13 0
BBX 14 10 0 -1
BITMAP
00000100000000
0001BE20269CD5
003DFF69FFFFD4
03EFEEA9FB6100
1EF808F9FEEC20
8F8001FFFFEB20
DE0028FFA00210
CFDDFFFFDDEFC0
3DFFD94DFFEC40
00110000100000
ENDCHAR
STARTCHAR oe
ENCODING 339
SWIDTH 1010 0
DWIDTH 11 0
BBX 12 8 0 -1
BITMAP
0004A1014671
006FF6AFFFE3
07FDD9CF7300
4FA14FCFFE20
BD101EFA8500
DC79EFF88A70
6FFFB8FFFD60
012000120000
ENDCHAR
STARTCHAR Scaron
ENCODING 352
SWIDTH 576 0
DWIDTH 6 0
BBX 8 13 0 -1
BITMAP
00230130
008E4DB0
000AFC10
00004100
0059DFD1
5DFFEFF6
DFFA0000
7EFFB000
0015E500
0018F600
3AEFC000
5FE81000
02000000
ENDCHAR
STARTCHAR scaron
ENCODING 353
SWIDTH 463 0
DWIDTH 5 0
BBX 7 12 0 -1
BITMAP
03202200
0AE4EA00
01BFB100
00050000
00269600
4CFFFF30
DFE40000
5BDE2000
000B8000
26CF4000
6FD50000
12000000
ENDCHAR
STARTCHAR Ydieresis
ENCODING 376
SWIDTH 493 0
DWIDTH 5 0
BBX 7 12 0 -1
BITMAP
00D81F70
00A51930
00000000
5C206E50
4F74FF50
2FCDF600
0DFF9000
06FE1000
0BF60000
4FD00000
6F500000
04000000
ENDCHAR
STARTCHAR Zcaron
ENCODING 381
SWIDTH 664 0
DWIDTH 7 0
BBX 9 13 -1 -1
BITMAP
0000230130
00008E4DB0
00000AFC10
0000004100
004CDCCC30
003FFEFF80
00012DFB10
0006EFA000
01AFF70000
0DFD315200
1FFABFFB00
0CFFEC7100
0155100000
ENDCHAR
STARTCHAR zcaron
ENCODING 382
SWIDTH 547 0
DWIDTH 6 0
BBX 8 12 -1 -1
BITMAP
00023013
0008E4DB
0000AFC1
00000410
00477760
008FFFF4
0002AF90
003DF800
07FE4000
1FE69D70
0DFFEA20
01640000
ENDCHAR
STARTCHAR circumflex
ENCODING 710
SWIDTH 754 0
DWIDTH 8 0
BBX 5 4 2 5
BITMAP
006300
09FE50
5E49E0
020030
ENDCHAR
STARTCHAR caron
ENCODING 711
SWIDTH 754 0
DWIDTH 8 0
BBX 5 4 2 5
BITMAP
040040
5F6BE0
08FE30
004200
ENDCHAR
STARTCHAR breve
ENCODING 728
SWIDTH 754 0
DWIDTH 8 0
BBX 5 3 2 6
BITMAP
040040
5F8BE0
07DB40
ENDCHAR
STARTCHAR dotaccent
ENCODING 729
SWIDTH 754 0
DWIDTH 8 0
BBX 3 2 3 6
BITMAP
1D70
1A40
ENDCHAR
STARTCHAR ring
ENCODING 730
SWIDTH 754 0
DWIDTH 8 0
BBX 4 4 3 5
BITMAP
06B0
5EE2
BDF5
3740
ENDCHAR
STARTCHAR ogonek
ENCODING 731
SWIDTH 754 0
DWIDTH 8 0
BBX 5 4 3 -3
BITMAP
220000
A50000
9B6500
19DD30
ENDCHAR
STARTCHAR tilde
ENCODING 732
SWIDTH 754 0
DWIDTH 8 0
BBX 6 3 2 6
BITMAP
023011
4FFAF4
978D80
ENDCHAR
STARTCHAR hungarumlaut
ENCODING 733
SWIDTH 754 0
DWIDTH 8 0
BBX 7 4 1 5
BITMAP
00010010
00AC1CA0
0AF9CF70
2E64E400
ENDCHAR
STARTCHAR endash
ENCODING 8211
SWIDTH 588 0
DWIDTH 6 0
BBX 6 2 0 2
BITMAP
69ABA4
AECBB6
ENDCHAR
STARTCHAR emdash
ENCODING 8212
SWIDTH 878 0
DWIDTH 10 0
BBX 9 2 0 2
BITMAP
7ABCCCBA40
6DCAAAA970
ENDCHAR
STARTCHAR quoteleft
ENCODING 8216
SWIDTH 203 0
DWIDTH 2 0
BBX 3 4 1 5
BITMAP
1400
8F50
ED00
D700
ENDCHAR
STARTCHAR quoteright
ENCODING 8217
SWIDTH 199 0
DWIDTH 2 0
BBX 4 5 0 4
BITMAP
0120
06F4
0BF2
1E80
0100
ENDCHAR
STARTCHAR quotesinglbase
ENCODING 8218
SWIDTH 204 0
DWIDTH 2 0
BBX 4 4 -2 -2
BITMAP
0260
07F5
0CE1
1C60
ENDCHAR
STARTCHAR quotedblleft
ENCODING 8220
SWIDTH 410 0
DWIDTH 5 0
BBX 5 5 1 4
BITMAP
130410
9F7FA0
ECAF20
E79B00
110000
ENDCHAR
STARTCHAR quotedblright
ENCODING 8221
SWIDTH 425 0
DWIDTH 5 0
BBX 6 5 0 4
BITMAP
012021
06F4DC
0BF7F8
1E8BC1
010000
ENDCHAR
STARTCHAR quotedblbase
ENCODING 8222
SWIDTH 430 0
DWIDTH 5 0
BBX 6 4 -2 -2
BITMAP
026053
07F5EC
0CE8F6
1C6990
ENDCHAR
STARTCHAR bullet
ENCODING 8226
SWIDTH 299 0
DWIDTH 3 0
BBX 3 3 0 2
BITMAP
1710
8F80
7D50
ENDCHAR
STARTCHAR ellipsis
ENCODING 8230
SWIDTH 768 0
DWIDTH 8 0
BBX 9 3 -1 -1
BITMAP
1941941930
3F73F73F60
0300300300
ENDCHAR
STARTCHAR perthousand
ENCODING 8240
SWIDTH 889 0
DWIDTH 10 0
BBX 10 8 0 0
BITMAP
01A1007200
1DE608E100
6EDA8E4000
2979E30000
008E570072
09E5EE19F7
5F3ADEAFBC
7B06C93BB4
ENDCHAR
STARTCHAR guilsinglleft
ENCODING 8249
SWIDTH 322 0
DWIDTH 4 0
BBX 5 6 -1 -1
BITMAP
000810
01AE10
1EC200
0CC200
01A900
000100
ENDCHAR
STARTCHAR guilsinglright
ENCODING 8250
SWIDTH 341 0
DWIDTH 4 0
BBX 4 6 -1 -1
BITMAP
0730
06F5
00AF
08F8
3E30
0100
ENDCHAR
STARTCHAR fraction
ENCODING 8260
SWIDTH 541 0
DWIDTH 6 0
BBX 6 9 0 -1
BITMAP
00004B
0002EB
000BD1
008E30
06F500
4F7000
BC0000
C80000
100000
ENDCHAR
STARTCHAR Euro
ENCODING 8364
SWIDTH 565 0
DWIDTH 6 0
BBX 7 7 -1 0
BITMAP
00001730
0005EFC0
007FE710
16FFA500
1EFDCA10
00DEBA40
0029CD50
ENDCHAR
STARTCHAR Delta
ENCODING 8710
SWIDTH 403 0
DWIDTH 4 0
BBX 7 8 -1 -1
BITMAP
00689830
00EFFC80
000AB000
000E7000
005F3000
14CE5000
4FEDA000
02000000
ENDCHAR
STARTCHAR minus
ENCODING 8722
SWIDTH 548 0
DWIDTH 6 0
BBX 6 2 0 2
BITMAP
89AB92
DDCBA4
ENDCHAR
STARTCHAR approxequal
ENCODING 8776
SWIDTH 323 0
DWIDTH 4 0
BBX 4 9 0 -1
BITMAP
05A0
0CF0
0FF1
4FB0
7F70
8F50
7F50
3F40
0100
ENDCHAR
STARTCHAR fi
ENCODING 64257
SWIDTH 810 0
DWIDTH 9 0
BBX 10 8 -1 -1
BITMAP
0002699160
04CFFCB8F2
04ED1007F3
05EB650BE0
2FFFEA0EA0
0BC2000E90
0B70000A90
0000000100
ENDCHAR
STARTCHAR fl
ENCODING 64258
SWIDTH 1012 0
DWIDTH 11 0
BBX 12 8 -1 -1
BITMAP
000269928100
04CFFCBAF500
04ED100BE100
05EB652F9000
2FFFEA6F4000
0BC2009F9BB5
0B70005FFCCA
000000021000
ENDCHAR
STARTCHAR .notdef
ENCODING -1
SWIDTH 370 0
DWIDTH 4 0
BBX 1 1 0 0
BITMAP
00
ENDCHAR
ENDFONT
